<?xml version="1.0" standalone="no"?>
<!DOCTYPE svg PUBLIC "-//W3C//DTD SVG 20010904//EN"
 "http://www.w3.org/TR/2001/REC-SVG-20010904/DTD/svg10.dtd">
<svg version="1.0" xmlns="http://www.w3.org/2000/svg"
 width="1288.000000pt" height="1288.000000pt" viewBox="0 0 1288.000000 1288.000000"
 preserveAspectRatio="xMidYMid meet">
<metadata>
Created by potrace 1.11, written by Peter Selinger 2001-2013
</metadata>
<g transform="translate(0.000000,1288.000000) scale(0.100000,-0.100000)"
fill="#000000" stroke="none">
<path d="M6470 12495 c-41 -8 -132 -28 -202 -46 l-127 -33 -138 17 c-76 9
-205 26 -288 37 -96 12 -209 20 -313 20 -160 0 -163 0 -190 -25 -15 -14 -37
-25 -50 -25 -13 0 -34 11 -48 25 -23 23 -32 25 -122 25 -199 0 -465 -35 -647
-86 -362 -101 -671 -249 -1249 -598 -138 -83 -309 -178 -381 -210 -115 -52
-135 -58 -180 -54 -30 3 -139 38 -270 87 -308 116 -393 141 -488 141 -75 0
-78 -1 -89 -27 -6 -16 -10 -34 -9 -40 2 -13 -21 -18 -32 -7 -4 4 3 20 15 37
l22 30 -30 -7 c-80 -20 -179 -88 -232 -162 -63 -87 -89 -182 -152 -552 -17
-100 -37 -211 -45 -245 -41 -179 -39 -267 11 -362 23 -45 165 -260 309 -469
81 -117 103 -215 71 -320 -8 -26 -39 -88 -70 -139 -93 -154 -97 -173 -106
-462 -9 -285 -7 -275 -120 -720 -127 -502 -161 -685 -185 -995 -22 -285 -98
-715 -137 -774 -31 -46 -58 -65 -223 -156 -417 -231 -559 -315 -651 -384 -56
-42 -107 -83 -113 -90 -7 -8 -11 -32 -9 -54 l3 -40 137 98 c278 199 499 326
713 409 59 23 108 41 110 39 2 -2 -1 -77 -6 -168 -5 -91 -11 -271 -14 -400 -5
-252 -8 -274 -72 -440 -27 -74 -28 -79 -28 -275 1 -110 7 -285 15 -390 8 -104
15 -257 14 -340 -1 -136 -3 -158 -28 -230 -15 -44 -43 -104 -62 -134 l-36 -53
35 -57 c39 -64 53 -117 36 -138 -8 -8 -10 -38 -7 -83 3 -38 1 -73 -4 -78 -6
-6 -8 -18 -5 -28 4 -20 5 -18 22 31 l6 20 15 -20 c16 -22 24 -32 67 -83 15
-19 24 -38 21 -44 -5 -7 -12 -4 -20 7 -12 17 -14 16 -24 -9 -5 -15 -10 -30
-10 -33 0 -12 -56 -53 -71 -53 -15 0 -18 -19 -24 -137 -7 -144 -16 -222 -37
-335 -10 -55 -10 -89 1 -175 23 -187 24 -328 7 -509 -54 -544 -90 -822 -148
-1114 -49 -253 -34 -347 76 -463 l45 -48 39 36 c48 42 84 45 184 14 l68 -22 0
-59 c0 -67 16 -104 61 -142 70 -59 96 -66 254 -66 115 0 145 3 145 13 0 8 -9
40 -21 73 -37 107 -59 243 -74 462 -19 269 -23 560 -11 757 l9 150 34 35 c60
62 63 107 18 310 -17 75 -19 185 -5 250 14 61 36 111 90 205 26 44 83 148 127
230 43 83 172 301 285 485 279 455 321 523 423 685 48 77 106 169 129 205 112
180 330 496 463 672 81 108 249 330 373 494 281 373 511 676 521 688 11 12
251 -145 244 -162 -2 -7 -100 -176 -216 -375 -199 -339 -348 -608 -449 -807
-56 -111 -95 -170 -210 -315 -159 -199 -195 -259 -295 -490 -83 -192 -177
-390 -397 -830 -253 -508 -337 -689 -372 -806 -30 -99 -118 -470 -113 -475 2
-2 84 186 182 419 230 545 410 972 492 1167 91 215 76 198 130 150 25 -22 49
-40 53 -40 23 0 71 77 90 142 118 405 123 416 475 1028 343 596 465 804 599
1024 l92 151 39 -3 c22 -2 135 -17 250 -34 163 -24 243 -31 360 -31 187 1 258
18 440 107 152 75 190 91 385 158 80 28 204 74 275 103 279 114 389 122 880
69 77 -8 158 -20 180 -25 76 -20 181 -78 250 -139 142 -126 290 -209 535 -303
190 -72 231 -81 349 -74 126 6 197 30 409 133 95 46 174 84 176 84 7 0 356
-443 406 -516 8 -12 76 -109 151 -215 153 -218 230 -336 383 -586 66 -110 228
-398 285 -509 58 -114 55 -111 82 -85 12 11 35 21 50 21 22 0 29 6 34 28 5 23
-7 50 -61 143 -36 63 -71 120 -76 127 -18 22 3 13 94 -39 85 -49 90 -50 103
-33 16 20 19 16 -160 182 -130 121 -118 112 -140 96 -20 -15 -20 -15 7 -66 15
-28 27 -53 25 -54 -1 -2 -23 13 -47 32 -44 35 -133 152 -281 369 -41 61 -91
133 -110 160 -36 51 -204 295 -365 530 -48 72 -139 209 -201 305 -101 159
-110 176 -95 188 9 7 80 56 157 109 77 52 145 102 152 110 19 24 78 -17 253
-178 536 -492 863 -838 1248 -1321 90 -113 136 -158 148 -146 2 2 -9 20 -25
39 -15 19 -82 111 -148 205 -67 94 -163 222 -214 285 -99 122 -400 428 -719
729 -492 466 -530 504 -555 555 -17 35 -20 68 -23 259 l-4 218 22 -7 c77 -24
249 -110 475 -237 143 -80 292 -162 330 -183 39 -21 88 -49 110 -61 22 -13 51
-29 65 -37 14 -7 158 -87 320 -176 357 -198 354 -195 412 -243 57 -47 101
-115 122 -188 9 -30 20 -129 26 -220 6 -91 26 -363 45 -605 46 -579 44 -529
19 -533 -16 -2 -55 26 -135 95 -63 54 -107 87 -98 73 97 -152 235 -403 256
-465 19 -57 21 -178 6 -344 -12 -122 -5 -200 39 -458 30 -172 32 -205 32 -398
0 -232 -11 -357 -79 -905 -27 -218 -53 -389 -65 -426 -11 -33 -20 -67 -20 -75
0 -8 23 -65 51 -127 87 -196 141 -383 184 -636 27 -157 39 -192 89 -244 40
-43 76 -62 118 -62 62 0 311 41 339 56 16 8 46 37 66 65 29 38 43 49 58 45 11
-3 49 -8 84 -12 59 -6 63 -6 58 12 -28 95 -182 872 -251 1269 -154 882 -279
1888 -360 2890 -37 452 -64 848 -60 854 5 6 410 -272 579 -399 368 -277 691
-569 941 -853 68 -76 85 -81 70 -22 -12 48 -131 190 -308 367 -299 301 -633
573 -1079 881 -146 101 -183 152 -232 322 -51 175 -61 255 -59 457 2 142 -3
221 -18 328 -11 77 -20 147 -20 155 0 10 43 -4 153 -49 530 -220 885 -424
1189 -684 l112 -96 -29 50 c-70 120 -99 149 -295 288 -303 215 -642 402 -927
510 -91 35 -168 100 -183 156 -24 88 -30 157 -34 390 -5 268 -14 371 -52 590
-49 280 -143 613 -283 1000 -92 252 -105 295 -126 414 -27 158 -15 326 35 470
10 31 49 116 85 189 l66 132 29 200 c36 247 67 531 76 690 15 279 -50 473
-211 624 -76 71 -206 138 -284 148 l-52 6 11 -27 c14 -38 12 -89 -4 -112 -19
-25 -31 -12 -16 17 17 30 6 86 -22 109 -37 31 -178 23 -178 -10 0 -5 4 -9 9
-7 11 3 71 -72 71 -89 0 -8 -5 -14 -11 -14 -6 0 -8 7 -5 16 4 12 2 15 -9 10
-8 -3 -15 -1 -15 4 0 4 -14 22 -31 39 -17 17 -27 36 -23 42 4 8 -3 9 -27 4
-52 -11 -99 -33 -99 -45 0 -6 -5 -8 -10 -5 -16 10 -110 -46 -110 -66 0 -20
-29 -34 -44 -19 -7 7 -5 10 6 10 9 0 19 4 22 9 4 5 -20 1 -52 -8 -222 -68
-426 -49 -637 56 -68 34 -196 117 -300 193 -164 120 -417 261 -562 313 -220
79 -785 214 -1053 252 -146 20 -757 20 -870 0z m3635 -779 c19 -18 35 -36 35
-40 0 -4 11 -19 25 -34 29 -31 31 -38 9 -46 -8 -3 -12 -2 -9 4 3 6 3 10 -2 10
-4 0 -23 22 -41 48 -18 26 -41 54 -52 62 -11 8 -20 18 -20 22 0 17 23 7 55
-26z m-2958 2 c6 -7 10 -27 10 -45 0 -25 -5 -33 -24 -38 -13 -3 -28 -3 -33 0
-5 3 -19 1 -30 -5 -27 -15 -28 -66 0 -75 31 -10 60 12 60 45 0 51 27 37 32
-15 3 -39 1 -43 -9 -28 -12 15 -14 15 -25 1 -16 -20 -58 -33 -58 -19 0 6 -7
11 -15 11 -10 0 -15 10 -16 28 0 24 -1 25 -9 7 -8 -19 -9 -19 -9 2 -1 23 34
63 55 63 7 0 20 3 30 7 13 5 15 3 9 -8 -5 -9 -2 -9 10 2 37 35 -18 84 -65 59
-12 -6 -20 -7 -20 -1 0 22 91 29 107 9z m2834 -85 c48 -55 69 -86 63 -94 -3
-5 2 -6 10 -3 11 4 16 0 16 -15 0 -34 -17 -25 -59 33 -23 30 -45 57 -51 61 -6
3 -8 11 -5 16 4 5 1 9 -4 9 -6 0 -11 5 -11 10 0 18 16 11 41 -17z m-127 -23
c19 -7 25 -16 24 -34 -2 -27 -18 -25 -18 3 0 14 -7 16 -35 13 -26 -3 -44 -15
-70 -45 -19 -22 -35 -34 -35 -26 0 22 29 59 46 59 8 0 14 7 14 16 0 12 6 15
26 10 17 -5 23 -3 19 4 -8 12 -3 13 29 0z m56 -65 c-2 0 16 -19 39 -43 23 -23
39 -47 36 -53 -5 -7 -11 -6 -20 1 -15 12 -28 -2 -30 -31 -2 -19 -35 -57 -35
-40 0 6 -4 11 -10 11 -5 0 -10 -6 -10 -14 0 -15 -24 -28 -34 -19 -8 8 42 45
53 39 5 -3 12 6 16 21 3 16 12 31 18 35 8 5 7 11 -2 22 -7 8 -9 21 -5 28 4 7
3 10 -1 5 -5 -4 -16 0 -25 8 -14 13 -19 11 -46 -13 -51 -44 -55 -94 -11 -112
18 -7 18 -9 5 -9 -10 -1 -18 -7 -18 -13 0 -7 -12 0 -26 16 -19 21 -24 35 -19
54 9 38 42 80 76 97 16 9 29 23 29 33 1 15 2 14 12 -3 7 -11 10 -20 8 -20z
m595 15 c250 -63 350 -139 385 -295 15 -67 -3 -394 -36 -650 -13 -104 -28
-224 -33 -265 -14 -109 -39 -166 -146 -335 -79 -124 -102 -169 -131 -260 -61
-189 -77 -282 -77 -445 0 -152 12 -211 73 -375 31 -84 54 -168 111 -409 27
-114 69 -272 93 -350 58 -183 65 -223 77 -455 8 -160 14 -206 35 -270 44 -135
42 -293 -5 -335 -10 -9 -42 -21 -72 -27 -50 -10 -73 -6 -304 45 -137 30 -338
76 -445 101 -590 138 -724 165 -895 175 -140 8 -180 15 -257 40 -105 35 -187
39 -282 14 -33 -9 -92 -19 -131 -23 -50 -4 -71 -10 -73 -21 -2 -13 13 -15 102
-12 207 6 331 -57 366 -187 14 -53 22 -174 13 -188 -7 -10 -31 -9 -108 6 -55
11 -142 27 -193 37 -88 16 -124 14 -92 -6 8 -5 67 -28 130 -51 136 -50 241
-100 293 -141 61 -49 70 -80 71 -268 l1 -165 -30 3 c-41 5 -119 41 -190 89
-33 22 -80 51 -104 63 -48 24 -154 39 -164 23 -6 -10 223 -162 313 -208 107
-54 122 -96 69 -181 -30 -46 -182 -204 -197 -204 -4 0 -61 48 -127 105 -221
194 -324 263 -445 299 -45 13 -52 14 -40 2 13 -13 254 -205 462 -368 37 -29
67 -56 67 -60 1 -10 -124 -87 -219 -134 -219 -109 -377 -124 -577 -54 -84 29
-129 52 -463 239 -221 124 -393 192 -601 238 -68 14 -126 18 -304 18 -204 -1
-228 -3 -336 -28 -155 -36 -270 -75 -414 -137 -676 -294 -917 -345 -1245 -263
-54 13 -185 65 -198 78 -4 4 81 117 196 259 61 75 63 79 46 97 -17 19 -18 19
-34 2 -82 -89 -266 -297 -277 -313 -8 -11 -20 -20 -26 -20 -17 0 -212 139
-214 153 -2 7 40 57 92 112 52 54 93 100 92 102 -2 1 -13 4 -24 6 -12 1 -28 9
-36 16 -13 10 -22 6 -54 -31 -21 -23 -62 -69 -92 -100 l-54 -58 -110 182 c-60
101 -112 189 -114 195 -3 7 30 51 72 98 43 47 76 85 74 85 -2 0 -26 -7 -53
-15 -27 -8 -66 -15 -87 -15 -34 0 -39 4 -57 43 -22 44 -51 210 -53 293 -1 27
-4 60 -9 74 -7 24 -9 22 -31 -25 -36 -78 -38 -205 -5 -379 14 -77 25 -140 24
-141 -2 -1 -61 -41 -133 -90 -520 -353 -994 -764 -1754 -1522 -141 -141 -251
-243 -262 -243 -27 0 -34 20 -64 185 -32 176 -31 237 10 635 36 350 113 978
125 1021 17 63 -1 55 920 397 481 179 805 291 872 301 35 6 116 13 181 17
l117 7 0 -67 0 -67 27 3 c25 3 30 10 57 101 l29 97 149 0 c141 0 148 1 148 20
0 23 -9 25 -134 39 -49 6 -90 12 -91 13 -2 2 10 35 25 75 23 60 26 74 14 84
-10 8 -18 7 -34 -4 -24 -17 -70 -76 -70 -91 0 -5 -14 -31 -31 -58 -48 -74 -77
-85 -249 -91 -171 -6 -255 -25 -490 -112 -85 -32 -290 -104 -455 -160 -165
-57 -455 -157 -644 -224 -189 -67 -346 -119 -348 -117 -4 4 12 333 28 541 17
237 35 330 104 542 l64 197 -6 140 c-9 215 10 385 92 856 68 391 79 475 79
610 -1 109 -4 133 -26 192 -43 114 -87 175 -238 332 -199 208 -240 287 -240
472 0 67 7 118 25 185 14 52 48 200 76 329 28 129 58 248 68 265 9 16 38 40
65 54 44 22 60 25 165 25 252 -1 490 -103 668 -285 77 -80 110 -124 160 -219
22 -41 54 -100 71 -130 69 -121 86 -265 42 -350 -31 -61 -62 -91 -150 -152
-133 -91 -180 -145 -216 -248 -15 -45 -19 -80 -17 -190 2 -194 39 -600 56
-617 11 -12 30 -8 118 21 143 47 243 60 414 53 129 -6 192 -16 427 -68 70 -16
122 -3 171 44 27 26 35 44 46 102 25 141 105 242 247 313 114 56 485 180 565
188 130 13 219 -33 340 -173 140 -163 241 -335 293 -502 41 -131 43 -162 13
-213 -57 -96 -111 -131 -531 -340 -176 -88 -332 -170 -344 -181 -45 -41 -52
-69 -52 -199 0 -68 -7 -224 -14 -348 -8 -124 -13 -226 -11 -228 4 -4 1052 515
1270 630 110 58 277 146 370 195 205 109 328 159 449 184 179 37 391 17 549
-52 174 -76 1176 -635 1362 -760 39 -25 135 -101 215 -167 80 -66 149 -118
153 -115 13 8 0 372 -17 465 -22 120 -58 229 -108 325 -68 130 -130 185 -329
290 -190 101 -370 237 -428 324 -52 77 -65 124 -64 224 2 150 67 290 194 416
92 91 180 139 359 197 156 51 244 66 332 59 169 -14 296 -130 473 -431 41 -70
87 -134 112 -156 l42 -37 168 -6 c317 -12 537 -78 848 -256 60 -34 75 -39 100
-32 27 8 27 9 6 10 -16 1 -21 5 -17 16 10 27 -4 45 -30 39 -18 -5 -24 -2 -24
10 0 9 5 16 11 16 5 0 7 -6 3 -12 -5 -10 -4 -10 7 0 11 11 11 16 -1 35 -93
147 -141 265 -160 397 -6 41 -13 210 -16 375 -8 429 -5 423 -305 493 -260 60
-363 213 -278 412 24 55 39 65 118 80 177 32 351 143 528 338 219 240 243 262
331 298 75 31 203 32 317 4z m-908 -37 c24 -25 43 -52 43 -60 0 -7 4 -13 8
-13 4 0 24 -21 44 -47 21 -27 49 -61 63 -76 29 -31 28 -71 -1 -47 -8 7 -12 20
-9 28 3 10 0 12 -10 8 -8 -3 -15 0 -15 6 0 6 -8 18 -18 27 -10 9 -29 32 -42
51 -13 19 -30 41 -37 48 -7 8 -11 18 -7 23 3 5 0 8 -7 7 -11 -3 -68 67 -69 85
0 16 16 5 57 -40z m-9 -161 c53 -54 82 -97 77 -110 -3 -10 0 -12 10 -9 17 7
29 -8 20 -23 -5 -8 -12 -7 -22 1 -12 10 -16 10 -24 -2 -5 -8 -9 -20 -9 -26 0
-7 -4 -13 -10 -13 -5 0 -7 -6 -4 -13 5 -13 -46 -37 -79 -37 -18 0 -57 50 -57
74 0 24 30 66 46 66 8 0 14 -4 14 -10 0 -5 -4 -10 -10 -10 -5 0 -10 -9 -10
-20 0 -22 -15 -27 -23 -7 -3 7 -6 7 -6 1 -1 -14 40 -59 60 -67 24 -8 56 18 69
57 9 29 8 39 -6 60 -19 31 -22 31 -46 9 -14 -13 -21 -14 -30 -5 -9 9 -8 12 6
12 9 0 14 5 11 10 -3 6 -1 10 4 10 14 0 10 50 -4 51 -5 1 -16 1 -22 0 -7 -1
-13 3 -13 9 0 5 -17 -6 -37 -25 -31 -29 -63 -45 -63 -32 0 14 41 47 51 41 8
-4 9 -3 5 5 -4 7 2 15 16 20 39 16 58 12 86 -17z m-138 -66 c0 -11 -19 -15
-25 -6 -3 5 1 10 9 10 9 0 16 -2 16 -4z m480 -2186 c-24 -15 -37 -11 -16 5 11
8 22 12 25 9 3 -3 -1 -9 -9 -14z m-815 -1750 c382 -67 1225 -242 1365 -284 88
-26 225 -88 252 -113 33 -32 33 -31 58 -278 51 -510 61 -683 41 -714 -9 -15
13 -26 -501 249 -151 81 -309 165 -350 187 -41 22 -160 86 -265 142 -315 171
-436 236 -520 281 -158 85 -145 71 -208 237 -111 290 -125 333 -113 333 6 0
115 -18 241 -40z m-5509 -945 c159 -213 169 -286 59 -457 -26 -40 -186 -257
-356 -483 -498 -660 -486 -646 -552 -675 -23 -11 -43 -17 -46 -15 -2 3 24 81
59 175 35 94 61 172 59 174 -2 3 -17 6 -32 8 -25 3 -30 -3 -61 -72 -18 -41
-63 -136 -99 -210 -77 -160 -112 -262 -131 -387 -17 -105 -24 -119 -150 -326
-51 -83 -181 -298 -288 -477 -337 -561 -599 -993 -627 -1035 -57 -83 -95 -135
-98 -132 -6 7 -63 324 -69 386 -7 73 6 317 37 691 11 135 22 277 24 315 2 39
6 97 10 130 6 55 5 58 -9 41 -8 -10 -17 -24 -19 -30 -2 -6 -7 -8 -11 -5 -3 3
5 26 18 51 l24 46 -24 83 c-47 162 -41 270 21 375 45 77 828 854 1164 1155
196 175 560 474 681 559 149 104 326 220 332 218 5 -2 42 -48 84 -103z m-2316
-2396 c0 -5 5 -7 11 -3 6 3 15 0 20 -7 12 -20 11 -49 -2 -49 -7 0 -9 9 -6 21
4 16 3 18 -8 9 -9 -8 -14 -5 -19 12 -5 14 -9 18 -13 11 -2 -7 -10 -13 -17 -13
-17 0 -50 -31 -54 -49 -6 -26 8 -60 36 -90 43 -47 52 -59 52 -71 0 -5 5 -10
10 -10 6 0 10 -4 10 -10 0 -18 -29 -10 -35 10 -3 11 -10 20 -14 20 -5 0 -34
31 -64 70 -53 65 -60 88 -23 74 11 -4 16 -1 16 12 0 22 28 54 47 54 8 0 12 4
9 8 -2 4 6 9 20 10 13 1 24 -3 24 -9z m-189 -158 c7 -1 109 -128 109 -136 0
-4 -5 -3 -12 1 -7 4 -8 3 -4 -4 4 -6 13 -9 21 -5 8 3 15 0 15 -6 0 -5 -13 -9
-30 -8 -24 2 -30 7 -30 25 0 12 -5 22 -11 22 -6 0 -9 7 -5 15 8 22 -35 12 -67
-15 -31 -27 -41 -63 -25 -90 18 -28 60 -25 92 6 14 15 26 21 26 15 0 -7 -13
-26 -30 -42 -37 -38 -83 -37 -112 2 -20 27 -16 85 5 72 6 -3 7 -1 3 5 -8 13
50 75 63 68 4 -3 13 0 21 6 12 8 12 9 -2 4 -10 -3 -18 0 -18 6 0 6 -7 19 -15
28 -23 25 -61 13 -99 -32 -22 -25 -37 -35 -41 -28 -4 7 12 29 37 54 42 40 56
44 109 37z m-228 -133 c11 -10 17 -18 14 -18 -3 0 -14 -3 -24 -7 -10 -3 -15
-3 -11 2 4 4 1 13 -8 19 -10 8 -13 18 -8 31 6 14 9 16 12 4 3 -7 14 -22 25
-31z m41 -54 c14 -15 26 -34 26 -42 0 -8 3 -12 6 -9 4 4 22 -14 41 -39 23 -29
32 -49 26 -55 -7 -7 -19 1 -34 21 -13 18 -43 56 -66 85 -24 30 -43 56 -43 59
0 13 19 4 44 -20z m349 -2318 c12 -18 5 -101 -10 -115 -12 -11 -14 -8 -11 15
3 26 0 29 -26 29 -17 1 -39 -8 -54 -22 -14 -13 -20 -23 -13 -23 6 0 11 -6 11
-14 0 -23 52 -26 82 -4 16 10 28 15 28 9 0 -5 3 -18 6 -28 5 -14 4 -15 -4 -3
-9 12 -15 12 -47 -3 -40 -19 -66 -12 -85 23 -18 34 16 78 64 82 15 1 32 8 37
14 12 15 1 44 -17 44 -8 0 -14 7 -14 15 0 13 4 14 23 4 12 -7 25 -17 30 -23z
m-67 15 c-8 -12 -46 -21 -46 -11 0 9 18 18 38 19 7 1 11 -3 8 -8z"/>
<path d="M1692 11162 c-8 -2 37 -55 106 -126 189 -194 209 -244 219 -534 6
-176 7 -181 23 -155 68 113 86 288 42 413 -52 144 -171 317 -256 369 -35 22
-112 41 -134 33z"/>
<path d="M10201 11119 c-68 -13 -127 -46 -173 -98 -78 -87 -148 -257 -156
-381 -4 -63 -1 -85 18 -127 12 -28 34 -63 50 -78 l29 -27 -6 128 c-12 286 70
441 287 548 l95 46 -50 -1 c-27 -1 -70 -5 -94 -10z"/>
<path d="M4165 9807 c-160 -53 -374 -214 -453 -340 -39 -64 -82 -159 -82 -183
0 -17 2 -17 70 1 76 20 77 20 84 -25 9 -60 43 -143 76 -189 33 -45 41 -48 64
-25 20 20 72 24 68 6 -1 -8 2 -11 7 -8 5 4 22 -10 38 -31 15 -20 42 -53 60
-72 30 -33 34 -51 12 -51 -5 0 -9 6 -9 14 0 8 -5 18 -12 22 -8 5 -9 2 -5 -9 4
-10 2 -17 -5 -17 -18 0 13 -30 54 -51 21 -11 38 -23 38 -28 0 -4 -38 -23 -85
-41 -47 -18 -83 -35 -81 -37 8 -8 258 38 344 63 151 44 296 121 388 206 55 50
74 85 74 132 0 43 -108 275 -174 374 -57 86 -216 241 -278 271 -58 28 -140 35
-193 18z m364 -384 c13 -43 32 -102 42 -132 9 -30 15 -60 12 -67 -3 -8 0 -14
6 -14 15 0 14 -24 -4 -67 -12 -29 -18 -34 -28 -24 -7 7 -8 14 -2 19 14 10 17
31 11 68 -5 24 -19 40 -62 68 -31 20 -60 36 -65 36 -5 0 -9 4 -9 9 0 5 -9 11
-21 14 -12 3 -18 10 -14 16 3 6 0 9 -7 6 -8 -3 -22 1 -33 9 -18 13 -19 15 -3
21 12 5 41 -8 85 -36 38 -23 71 -46 74 -51 3 -4 14 -1 25 7 11 8 14 15 7 15
-7 0 -13 6 -13 13 0 8 -7 27 -15 44 -18 36 -31 123 -19 123 5 0 20 -35 33 -77z
m-204 -116 c1 -1 27 -34 58 -73 55 -69 68 -94 47 -94 -5 0 -10 5 -10 11 0 5
-4 8 -8 5 -9 -5 -88 102 -84 115 1 5 -1 8 -5 7 -5 0 -16 2 -26 7 -46 20 -100
-52 -71 -94 9 -12 13 -21 10 -21 -2 0 18 -24 45 -52 27 -29 47 -57 46 -62 -7
-20 -23 -15 -39 11 -9 16 -28 42 -43 58 -14 17 -30 40 -35 53 -15 35 -70 31
-93 -7 -22 -38 -22 -64 2 -85 11 -10 22 -29 26 -43 3 -14 9 -23 12 -19 3 3 17
-9 30 -26 15 -21 20 -35 13 -42 -5 -5 -11 -8 -13 -5 -31 43 -98 131 -119 154
-16 17 -23 32 -17 34 6 2 15 -2 19 -9 5 -8 10 -6 15 7 5 10 8 21 7 25 -1 3 12
21 28 38 23 25 36 31 54 26 20 -5 26 -1 34 23 17 49 49 74 85 67 17 -3 31 -7
32 -9z"/>
<path d="M4360 9225 c24 -31 40 -47 40 -38 0 11 -12 26 -35 43 -19 14 -19 14
-5 -5z"/>
<path d="M8078 9771 c-185 -59 -443 -300 -504 -468 -7 -21 -13 -72 -14 -114 0
-99 29 -161 107 -222 201 -160 524 -203 712 -96 29 17 104 81 165 142 93 93
119 125 148 187 32 66 58 150 46 150 -2 0 -48 -11 -102 -25 -54 -14 -104 -25
-110 -25 -7 0 -57 55 -111 121 -55 67 -126 153 -159 192 l-58 70 38 33 c22 18
42 33 47 34 4 0 7 4 7 9 0 8 -108 32 -141 30 -8 0 -40 -8 -71 -18z"/>
<path d="M3931 9026 l-24 -13 23 -19 c12 -11 43 -36 67 -56 51 -44 69 -47 75
-14 4 19 1 23 -10 18 -11 -4 -14 -1 -9 11 3 9 -1 21 -11 29 -13 11 -14 11 -7
-1 6 -11 3 -13 -13 -9 -15 4 -19 2 -15 -8 3 -8 1 -14 -5 -14 -16 0 -22 28 -6
34 16 6 17 15 6 32 -12 19 -46 24 -71 10z"/>
<path d="M6091 8554 c-30 -8 -134 -57 -230 -108 -97 -52 -266 -139 -376 -194
-238 -120 -289 -153 -330 -210 -28 -41 -30 -49 -30 -138 0 -52 -2 -94 -5 -94
-3 0 -11 -4 -18 -8 -10 -7 -5 -24 20 -78 54 -117 87 -162 160 -219 126 -99
263 -165 537 -259 88 -30 207 -75 264 -99 187 -80 254 -81 395 -6 39 21 105
57 145 78 39 22 168 78 285 126 262 105 317 132 364 182 104 108 137 345 69
499 -40 89 -78 118 -334 245 -558 280 -731 333 -916 283z"/>
<path d="M4005 6909 c-148 -103 -164 -117 -115 -96 50 21 274 120 279 123 2 2
-5 17 -16 33 l-19 31 -129 -91z"/>
<path d="M4262 6604 c-88 -73 -92 -79 -92 -116 0 -22 -5 -49 -10 -61 -6 -12
43 34 109 102 108 113 133 151 97 151 -6 0 -53 -34 -104 -76z"/>
<path d="M4143 6493 c-7 -2 -13 -11 -13 -18 0 -8 -8 -16 -18 -19 -26 -8 -65
-52 -58 -64 9 -14 52 -20 70 -10 9 5 16 20 16 33 0 14 5 25 10 25 6 0 10 8 10
18 0 14 -2 15 -10 2 -9 -13 -10 -13 -10 1 0 8 5 20 12 27 13 13 11 14 -9 5z"/>
<path d="M1240 3830 c0 -5 5 -10 11 -10 5 0 7 5 4 10 -3 6 -8 10 -11 10 -2 0
-4 -4 -4 -10z"/>
<path d="M1040 3651 c0 -13 39 -35 48 -27 3 3 0 6 -6 6 -6 0 -18 7 -26 16 -9
8 -16 11 -16 5z"/>
<path d="M956 3597 c3 -10 9 -15 12 -12 3 3 0 11 -7 18 -10 9 -11 8 -5 -6z"/>
<path d="M5140 12481 c28 -16 63 -24 56 -13 -3 6 2 13 11 15 10 3 -4 5 -32 6
-32 0 -45 -3 -35 -8z"/>
<path d="M4627 4940 c-24 -27 -55 -71 -67 -97 -31 -64 -38 -174 -16 -227 9
-22 19 -37 21 -34 3 3 29 86 59 184 29 98 56 189 60 202 12 36 -9 26 -57 -28z"/>
<path d="M8358 4866 l-21 -45 -57 40 c-31 21 -58 39 -61 39 -3 0 -4 -25 -3
-56 2 -63 -1 -64 -78 -30 l-37 16 -16 -54 c-37 -125 -115 -201 -305 -294 -135
-66 -234 -126 -259 -156 -12 -14 -10 -16 10 -16 94 0 330 104 508 223 63 43
118 77 123 77 5 0 45 -32 91 -71 91 -80 155 -125 163 -116 3 3 -15 41 -40 86
-25 44 -46 84 -46 88 0 6 86 65 279 190 2 1 1 14 -3 28 -7 28 -32 32 -85 14
-30 -10 -35 -8 -86 36 l-55 46 -22 -45z"/>
<path d="M9887 4874 l-29 -24 64 -73 c34 -39 65 -74 68 -77 3 -3 63 -72 134
-153 123 -143 129 -147 147 -131 10 9 19 20 19 25 0 6 -327 407 -364 446 -8 9
-18 6 -39 -13z"/>
<path d="M4793 4778 c-65 -67 -109 -213 -94 -308 7 -44 38 -116 47 -108 2 3
22 94 44 204 22 109 42 209 45 222 7 31 -6 28 -42 -10z"/>
<path d="M2973 4701 c-86 -67 -183 -241 -229 -407 -18 -67 -31 -254 -18 -254
10 0 308 689 301 696 -2 3 -27 -13 -54 -35z"/>
<path d="M4955 4578 c-49 -263 -72 -394 -69 -397 1 -2 39 11 84 28 45 17 85
31 90 31 5 0 23 -38 41 -85 32 -86 35 -90 63 -79 14 5 16 32 16 198 l-1 191
-78 -82 c-43 -46 -81 -83 -85 -83 -3 0 -6 68 -6 150 0 84 -4 150 -9 150 -5 0
-16 3 -25 6 -11 4 -16 -3 -21 -28z"/>
<path d="M6703 4300 l-22 -9 25 -68 c14 -37 43 -114 64 -170 52 -138 56 -145
87 -141 39 5 50 30 34 75 -37 101 -140 318 -152 320 -8 1 -24 -2 -36 -7z"/>
<path d="M6963 4300 c-22 -9 -22 -9 29 -162 28 -84 54 -157 58 -161 4 -4 18
-3 32 2 21 8 27 19 33 58 9 64 11 66 48 47 46 -24 146 -22 245 5 45 13 82 26
82 30 0 13 -53 167 -61 175 -4 5 -57 -5 -125 -23 l-116 -32 -29 27 c-18 18
-33 24 -39 18 -5 -5 -10 -42 -12 -82 l-3 -73 -53 91 c-29 49 -56 90 -60 89 -4
0 -17 -4 -29 -9z"/>
<path d="M5509 4252 c-37 -31 -36 -32 91 -73 164 -53 261 -70 446 -76 172 -6
444 12 427 27 -10 10 -367 68 -668 110 -121 16 -230 32 -243 34 -15 2 -35 -6
-53 -22z"/>
<path d="M9770 4040 c-27 -17 95 -171 187 -233 34 -24 45 -27 60 -17 14 9 14
10 2 6 -20 -6 -64 38 -54 53 3 6 2 11 -3 11 -12 0 -56 43 -59 58 -4 16 24 15
30 0 3 -9 7 -7 12 5 12 28 1 40 -74 85 -77 46 -79 46 -101 32z"/>
<path d="M3316 3999 c-21 -96 -116 -642 -112 -646 2 -3 22 -7 43 -10 l39 -5
56 333 c31 184 54 335 53 337 -1 2 -19 5 -38 9 -32 5 -37 3 -41 -18z"/>
<path d="M10041 3994 c0 -6 -13 -11 -28 -10 -17 0 -27 -4 -25 -12 1 -7 -5 -12
-13 -12 -20 0 -20 -63 0 -84 8 -8 12 -23 9 -33 -4 -13 -3 -15 4 -5 7 11 14 7
32 -18 19 -26 20 -34 9 -41 -11 -8 -10 -9 5 -7 10 2 22 -4 26 -12 96 -186 392
-883 560 -1317 24 -62 45 -111 47 -109 7 7 -19 192 -37 261 -19 72 -203 510
-400 950 -102 229 -175 404 -183 440 -3 11 -5 15 -6 9z"/>
<path d="M9945 3880 c3 -5 8 -10 11 -10 2 0 4 5 4 10 0 6 -5 10 -11 10 -5 0
-7 -4 -4 -10z"/>
<path d="M9751 3746 l-23 -25 21 -30 c18 -25 25 -28 36 -18 7 6 11 15 9 19 -2
3 2 13 10 21 13 12 13 17 0 36 -19 27 -25 26 -53 -3z"/>
<path d="M9825 3700 c3 -6 0 -13 -9 -16 -30 -11 -26 -33 9 -50 19 -9 35 -21
35 -28 0 -6 5 -3 11 8 9 15 13 16 20 5 5 -8 9 -9 9 -3 0 16 -58 94 -71 94 -5
0 -7 -5 -4 -10z"/>
<path d="M9820 3621 c0 -10 19 -25 25 -20 1 2 -3 10 -11 17 -8 7 -14 8 -14 3z"/>
<path d="M9875 3592 c-3 -7 -9 -10 -15 -7 -19 12 -10 -10 18 -40 24 -26 190
-213 199 -224 4 -6 43 31 43 41 0 5 -44 63 -97 128 -75 90 -103 118 -120 117
-13 -1 -25 -7 -28 -15z"/>
<path d="M9656 3571 c-17 -19 -13 -25 114 -183 73 -90 136 -164 140 -166 4 -1
18 6 31 17 l23 19 -26 38 c-57 81 -176 219 -187 216 -7 -1 -10 1 -7 6 3 5 -3
16 -12 25 -9 8 -23 23 -30 31 -17 21 -25 20 -46 -3z"/>
<path d="M819 3537 c-18 -14 -31 -102 -19 -132 5 -11 9 -15 9 -9 1 7 10 14 21
17 10 3 27 21 37 41 16 34 16 39 1 64 -20 32 -28 35 -49 19z"/>
<path d="M9594 3369 c-2 -4 30 -78 73 -163 83 -166 91 -172 92 -67 1 83 -17
130 -74 187 -46 47 -79 62 -91 43z"/>
</g>
</svg>
